<?xml version="1.0" standalone="no"?>
<!DOCTYPE svg PUBLIC "-//W3C//DTD SVG 20010904//EN"
 "http://www.w3.org/TR/2001/REC-SVG-20010904/DTD/svg10.dtd">
<svg version="1.0" xmlns="http://www.w3.org/2000/svg"
 width="200.000000pt" height="200.000000pt" viewBox="0 0 200.000000 200.000000"
 preserveAspectRatio="xMidYMid meet">
<metadata>
Created by potrace 1.14, written by Peter Selinger 2001-2017
</metadata>
<g transform="translate(0.000000,200.000000) scale(0.100000,-0.100000)"
fill="#000000" stroke="none">
<path d="M1205 1970 c3 -5 8 -10 11 -10 2 0 4 5 4 10 0 6 -5 10 -11 10 -5 0
-7 -4 -4 -10z"/>
<path d="M1170 1940 c0 -4 7 -10 15 -14 8 -3 15 -10 15 -15 0 -6 -7 -8 -15 -5
-8 4 -15 1 -15 -5 0 -6 6 -11 13 -11 6 0 12 -12 13 -28 2 -51 15 -103 25 -97
5 4 7 11 3 17 -5 8 -8 40 -13 144 -1 13 -41 27 -41 14z"/>
<path d="M1250 1880 c-21 -21 -28 -80 -10 -80 6 0 10 9 10 19 0 11 8 26 18 33
18 14 26 48 11 48 -5 0 -18 -9 -29 -20z"/>
<path d="M701 1785 c-18 -8 -44 -15 -58 -15 -17 0 -24 -5 -22 -17 3 -34 -1
-41 -21 -36 -11 3 -20 9 -20 14 0 5 -10 9 -23 9 -27 0 -77 -21 -77 -33 0 -13
-27 -37 -42 -37 -10 0 -12 -11 -10 -40 2 -22 9 -40 16 -40 6 0 17 -9 24 -20 7
-11 19 -20 28 -20 11 0 14 -8 12 -26 -3 -29 -17 -39 -61 -49 -15 -3 -25 -10
-22 -15 3 -5 -21 -14 -54 -21 l-60 -11 5 -42 c56 -444 70 -582 62 -587 -5 -3
-4 -41 3 -97 9 -73 9 -95 -1 -107 -10 -12 -9 -15 4 -15 10 0 15 -4 11 -9 -3
-5 5 -17 17 -27 18 -12 19 -15 4 -10 -14 5 -17 2 -12 -9 3 -8 9 -22 13 -31 4
-12 2 -15 -8 -12 -8 2 -15 16 -17 31 -5 39 -25 50 -49 27 -12 -10 -23 -17 -26
-14 -2 3 -7 -2 -10 -10 -4 -9 -2 -18 3 -21 6 -4 10 -13 10 -22 0 -13 -3 -13
-15 -3 -17 14 -38 2 -56 -32 -9 -16 -6 -18 27 -13 21 2 41 10 46 17 7 12 9 11
12 -11 0 -5 4 -13 8 -16 4 -4 3 -16 -3 -26 -9 -17 -6 -19 27 -14 21 2 41 10
46 17 6 9 10 7 14 -9 7 -25 34 -32 34 -9 0 10 14 16 43 18 41 3 42 4 45 43 2
22 7 44 12 49 5 5 58 -26 129 -77 66 -48 125 -87 130 -87 16 0 13 17 -4 24
-23 8 -21 105 3 122 20 15 52 18 52 5 0 -5 10 -13 22 -17 19 -6 20 -7 4 -16
-12 -7 -14 -13 -7 -22 8 -10 4 -16 -14 -24 -38 -17 -33 -50 11 -68 36 -15 36
-16 15 -30 -14 -11 -21 -26 -21 -50 0 -19 -4 -34 -10 -34 -5 0 -10 5 -10 10 0
6 -4 10 -8 10 -4 0 -8 -11 -8 -25 0 -31 7 -31 38 0 l25 25 48 -35 c36 -25 52
-31 61 -24 7 6 18 8 24 4 6 -4 20 1 30 10 11 10 26 14 38 11 16 -5 19 -2 17
25 -2 29 7 37 112 115 62 46 113 88 113 92 0 11 196 153 232 169 15 7 28 17
28 23 0 6 4 9 9 6 15 -9 40 28 43 64 2 25 -1 35 -12 35 -37 2 -49 16 -43 48 3
18 12 37 19 43 8 6 12 19 8 28 -3 9 -1 16 4 16 12 0 10 34 -3 63 -9 22 11 155
28 175 7 9 11 48 9 110 -1 67 2 102 12 116 7 12 17 44 20 71 l7 51 -45 12
c-25 6 -46 16 -46 22 0 5 -7 10 -15 10 -9 0 -15 9 -15 21 0 13 -8 23 -21 26
-12 3 -16 9 -10 12 6 4 13 21 17 38 5 28 3 31 -25 36 -17 4 -38 4 -46 1 -18
-7 -20 -55 -3 -72 8 -8 8 -15 -3 -28 -10 -12 -24 -15 -59 -11 -24 3 -52 1 -62
-4 -14 -7 -19 0 -33 44 -10 28 -33 82 -52 120 -35 67 -36 67 -78 67 -41 0 -43
-1 -60 -47 -10 -27 -27 -63 -37 -81 -18 -29 -24 -32 -52 -27 -57 12 -66 16
-66 35 0 28 -11 51 -21 44 -5 -3 -9 -21 -9 -40 0 -48 -16 -43 -24 8 -5 29 -10
38 -15 29 -5 -8 -7 -27 -4 -42 3 -20 -1 -31 -11 -35 -9 -3 -16 -13 -16 -21 0
-11 -6 -14 -22 -9 -13 3 -38 6 -56 6 l-33 0 3 48 c3 42 6 47 28 50 23 3 25 7
24 49 -1 39 -5 48 -25 55 -13 5 -27 16 -32 24 -10 18 -42 17 -86 -1z m-5 -131
c6 -7 16 -14 23 -14 14 0 15 -86 1 -95 -6 -4 -33 -7 -60 -8 -27 -1 -52 -6 -56
-10 -17 -17 -34 -6 -34 22 0 63 11 90 41 96 20 5 26 11 22 22 -5 13 -1 15 23
9 16 -4 34 -14 40 -22z m509 6 c3 -5 1 -10 -4 -10 -6 0 -11 5 -11 10 0 6 2 10
4 10 3 0 8 -4 11 -10z m-167 -97 c46 -6 52 -18 23 -50 -17 -18 -24 -19 -60
-10 -49 13 -54 25 -8 21 17 -2 23 -1 12 2 -11 3 -27 8 -35 11 -8 3 -21 7 -29
7 -8 1 -16 6 -18 13 -5 13 33 23 57 15 8 -2 34 -7 58 -9z m167 -73 c3 -5 1
-10 -4 -10 -6 0 -11 5 -11 10 0 6 2 10 4 10 3 0 8 -4 11 -10z m211 -15 c-21
-16 -32 -13 -21 4 3 6 14 11 23 11 15 -1 15 -2 -2 -15z m-786 -21 c0 -31 -23
-28 -28 4 -2 15 2 22 12 22 11 0 16 -9 16 -26z m583 -6 c6 -22 1 -38 -11 -38
-10 0 -31 48 -24 55 12 12 30 4 35 -17z m137 -8 c-8 -5 -13 -10 -10 -11 3 0
14 -2 25 -5 64 -13 156 -23 169 -18 9 3 16 1 16 -5 0 -6 -7 -11 -15 -11 -8 0
-15 -7 -15 -15 0 -8 -4 -15 -10 -15 -5 0 -10 4 -10 9 0 5 -15 12 -32 16 -95
23 -159 33 -180 27 -26 -6 -23 11 5 24 29 15 79 18 57 4z m-262 -19 c19 -12
10 -47 -11 -43 -18 3 -23 -13 -7 -23 12 -7 4 -25 -11 -25 -5 0 -9 14 -9 30 0
17 -5 30 -11 30 -5 0 -7 5 -4 10 4 6 11 8 16 5 5 -4 9 1 9 9 0 18 8 20 28 7z
m52 -71 l-8 -35 -1 31 c-1 17 2 34 6 37 11 12 12 3 3 -33z m80 24 c0 -8 -4
-12 -10 -9 -5 3 -10 10 -10 16 0 5 5 9 10 9 6 0 10 -7 10 -16z m-605 -27 c6
-7 55 -28 110 -47 55 -18 107 -40 116 -47 8 -7 21 -13 28 -13 10 0 11 -10 7
-35 -6 -32 -3 -39 23 -63 22 -18 31 -36 31 -57 0 -16 7 -43 15 -59 8 -15 15
-35 15 -42 0 -8 6 -14 14 -14 7 0 19 -7 26 -15 7 -8 8 -15 3 -15 -6 0 -22 -11
-37 -25 -23 -21 -30 -23 -46 -12 -11 6 -20 19 -20 29 0 9 -9 19 -20 23 -12 4
-24 21 -30 45 -6 22 -15 42 -20 45 -6 3 -10 13 -10 20 0 18 -31 55 -45 55 -6
0 -15 15 -20 32 -8 26 -20 37 -55 51 l-46 19 -33 -31 -33 -31 7 -113 c8 -130
10 -133 75 -204 11 -13 20 -35 21 -50 1 -28 15 -74 35 -106 14 -23 51 -30 58
-10 5 11 14 14 36 10 16 -4 32 -2 35 2 3 5 16 8 30 6 14 -1 28 2 31 6 8 13 48
11 62 -3 7 -7 12 -25 12 -40 0 -21 5 -28 20 -28 16 0 20 7 20 33 0 17 7 41 15
51 8 11 15 28 15 38 0 9 8 25 19 35 10 10 21 39 25 68 6 51 26 87 26 48 0 -12
-4 -25 -10 -28 -5 -3 -10 -21 -10 -39 0 -20 -8 -40 -20 -51 -11 -10 -20 -25
-20 -34 0 -9 -7 -26 -15 -38 -9 -12 -15 -26 -14 -30 5 -31 -3 -55 -21 -60 -12
-3 -20 -14 -20 -25 0 -17 5 -19 28 -14 26 6 26 6 8 -9 -11 -8 -23 -15 -28 -15
-4 0 -8 -10 -8 -22 0 -18 -2 -20 -9 -9 -5 8 -21 16 -35 18 -20 3 -27 -2 -32
-21 -8 -35 -38 -42 -72 -17 l-29 20 -26 -32 c-25 -31 -26 -31 -46 -13 -11 10
-20 21 -19 25 2 19 -5 33 -37 65 -19 20 -35 43 -35 52 0 8 -7 29 -16 45 -8 17
-13 37 -10 45 8 22 -12 65 -43 94 -16 14 -31 39 -34 55 -3 17 -13 62 -21 100
-23 112 -22 268 3 314 8 14 11 38 8 59 -6 34 -6 34 26 28 18 -3 37 -12 42 -19z
m593 -36 c15 -47 15 -51 1 -51 -5 0 -7 5 -3 11 4 7 -3 19 -16 29 -15 11 -21
23 -17 34 10 26 23 18 35 -23z m69 17 c-3 -8 -6 -5 -6 6 -1 11 2 17 5 13 3 -3
4 -12 1 -19z m-36 -51 c-13 -13 -15 11 -4 40 7 16 8 15 11 -6 2 -13 -1 -28 -7
-34z m396 1 c-3 -8 -6 -5 -6 6 -1 11 2 17 5 13 3 -3 4 -12 1 -19z m-72 -43
c-2 -31 -8 -61 -13 -68 -6 -7 -14 -47 -18 -90 -4 -43 -10 -80 -15 -83 -12 -7
2 165 17 210 7 22 11 44 8 48 -5 8 13 38 22 38 1 0 1 -25 -1 -55z m-48 -17
c-3 -7 -5 -2 -5 12 0 14 2 19 5 13 2 -7 2 -19 0 -25z m-130 -34 c2 -5 -24 -20
-57 -33 -54 -21 -81 -50 -47 -51 6 0 4 -5 -6 -11 -14 -8 -22 -8 -30 0 -14 14
-18 69 -6 77 5 3 9 -3 9 -13 0 -14 2 -15 9 -4 5 8 7 21 4 30 -4 14 -3 14 6 1
9 -13 15 -12 53 2 45 17 60 18 65 2z m-153 -131 c-4 -16 -10 -30 -13 -33 -3
-3 -6 -11 -7 -17 -2 -30 -4 -36 -11 -30 -10 10 -32 -13 -27 -28 3 -7 1 -16 -5
-20 -17 -10 -24 21 -11 44 8 16 8 21 -1 21 -7 0 -9 3 -5 8 4 4 12 7 18 7 6 0
12 8 14 18 3 21 32 57 46 57 4 0 5 -12 2 -27z m306 -79 c0 -8 -5 -12 -10 -9
-6 4 -8 11 -5 16 9 14 15 11 15 -7z m-996 -248 c8 -18 22 -40 33 -47 10 -8 18
-20 17 -26 -1 -7 -2 -17 -3 -23 0 -5 -5 -10 -10 -10 -5 0 -7 9 -4 20 3 11 1
20 -4 20 -4 0 -17 15 -27 34 -10 19 -25 37 -33 40 -8 3 -11 10 -8 16 11 18 25
10 39 -24z m566 -5 c0 -17 -4 -33 -10 -36 -5 -3 -10 -21 -10 -40 0 -40 -8 -65
-22 -65 -10 0 -4 70 13 133 12 44 29 49 29 8z m-626 -26 c19 -28 21 -44 4 -27
-7 7 -17 8 -30 1 -14 -7 -18 -6 -18 6 0 8 5 15 10 15 6 0 10 5 10 11 0 5 -4 7
-10 4 -5 -3 -10 -1 -10 4 0 20 28 11 44 -14z m6 -60 c11 -13 10 -14 -4 -9 -9
3 -16 10 -16 15 0 13 6 11 20 -6z m-50 1 c0 -3 -4 -8 -10 -11 -5 -3 -10 -1
-10 4 0 6 5 11 10 11 6 0 10 -2 10 -4z m180 -102 c0 -28 -2 -32 -13 -23 -14
14 -10 72 4 63 5 -3 9 -21 9 -40z m-216 -90 c17 -16 21 -34 9 -34 -17 1 -45
29 -38 39 8 14 11 14 29 -5z m651 -153 c-6 -5 -25 10 -25 20 0 5 6 4 14 -3 8
-7 12 -15 11 -17z"/>
<path d="M579 1193 c-13 -16 -12 -17 4 -4 9 7 17 15 17 17 0 8 -8 3 -21 -13z"/>
</g>
</svg>
